<?xml version="1.0" encoding="UTF-8"?>
<svg version="1.1" xmlns="http://www.w3.org/2000/svg" width="1254" height="1254">
<path d="M0 0 C413.82 0 827.64 0 1254 0 C1254 413.82 1254 827.64 1254 1254 C840.18 1254 426.36 1254 0 1254 C0 840.18 0 426.36 0 0 Z " fill="#025FFD" transform="translate(0,0)"/>
<path d="M0 0 C3.49640987 0.0160889 6.99166166 0.00003484 10.48803711 -0.01904297 C56.26928397 -0.06236508 104.44844503 10.10037722 138.06420898 43.39111328 C172.13703685 80.09640548 172.68237206 129.7205322 172.57291913 176.77295208 C172.56475327 182.47173461 172.58180485 188.17044076 172.59666443 193.86920166 C172.62720358 207.07064932 172.62899492 220.272019 172.62701416 233.47349548 C172.62561241 250.31976235 172.63614549 267.16597017 172.67559189 284.01219392 C172.69040811 290.75891763 172.69034594 297.50541863 172.67811406 304.25214529 C172.67336915 308.45722612 172.68097351 312.66222333 172.69165802 316.8672905 C172.69404202 318.79846893 172.69140844 320.729662 172.68305016 322.66082382 C172.5596305 353.01664478 180.21422748 381.1890968 201.91186523 403.36376953 C219.06373079 420.14884366 241.07028938 430.40336901 264.06420898 436.39111328 C265.81684514 436.94534496 267.5672983 437.50659116 269.31420898 438.07861328 C274.16040278 439.54992769 279.07463452 440.26588613 284.08374023 440.96142578 C287.06420898 441.39111328 287.06420898 441.39111328 289.2355957 441.9074707 C292.92747101 442.53871574 296.56891614 442.55358046 300.30249023 442.55908203 C301.10091843 442.56241043 301.89934662 442.56573883 302.7219696 442.56916809 C304.41392443 442.5742219 306.10588919 442.57657689 307.79785156 442.57641602 C310.33017534 442.57857363 312.86204199 442.59666461 315.39428711 442.61572266 C347.57064635 442.72908009 383.61196115 436.44815348 409.06420898 415.39111328 C410.37325195 414.32570313 410.37325195 414.32570313 411.70874023 413.23876953 C417.56825254 408.24017508 422.07374466 402.97384855 426.06420898 396.39111328 C426.53729492 395.61123047 427.01038086 394.83134766 427.49780273 394.02783203 C434.49747668 381.33702852 435.7784003 366.24355226 432.88061523 352.18017578 C426.72064233 331.13605782 408.50671843 316.62468828 390.06420898 306.39111328 C381.85335519 302.13544749 373.47055911 298.24199307 365.06420898 294.39111328 C364.09531738 293.93841064 363.12642578 293.48570801 362.12817383 293.01928711 C356.95788432 290.62136238 351.87812567 288.52901534 346.43920898 286.82861328 C342.45003368 285.55205725 338.540452 284.254941 334.75170898 282.45361328 C330.37432235 280.39756805 325.84306884 278.94691051 321.25170898 277.45361328 C315.06172629 275.43508579 309.03237433 273.25101326 303.04858398 270.67236328 C299.59619773 269.19018698 296.115727 267.7840706 292.62670898 266.39111328 C291.99023438 266.13571777 291.35375977 265.88032227 290.69799805 265.6171875 C286.69653211 264.01843759 282.66924116 262.50704718 278.62670898 261.01611328 C270.82547543 258.02150774 263.44429353 254.2913868 256.06420898 250.39111328 C255.06768311 249.86493408 255.06768311 249.86493408 254.05102539 249.328125 C223.44343106 233.00357616 194.82441989 210.45712527 183.97412109 176.15917969 C175.15181107 146.67314612 177.5318917 116.62671658 192.11547852 89.43066406 C199.8806306 75.71573143 210.40559092 63.74421684 223.06420898 54.39111328 C224.24370117 53.49005859 224.24370117 53.49005859 225.44702148 52.57080078 C241.04741151 41.08932561 260.04224234 32.99599135 279.06420898 29.39111328 C280.07717041 29.19026123 280.07717041 29.19026123 281.1105957 28.98535156 C302.44939749 24.89077034 325.64984036 24.6136395 347.06420898 28.39111328 C348.08256836 28.54708984 349.10092773 28.70306641 350.15014648 28.86376953 C353.13061915 29.32922392 356.09512314 29.85829944 359.06420898 30.39111328 C360.10706055 30.54837891 361.14991211 30.70564453 362.22436523 30.86767578 C384.2875887 34.59877332 407.8153123 43.29018745 426.06420898 56.39111328 C428.02115671 57.66407927 429.97960008 58.93474775 431.93920898 60.20361328 C441.52217787 66.6404754 449.83495632 73.95666096 458.06420898 82.01611328 C458.80695068 82.73275146 459.54969238 83.44938965 460.31494141 84.18774414 C465.06608824 88.92360169 468.45904195 92.91140118 469.38452148 99.76220703 C468.6453754 107.58237259 464.41046178 111.51517388 458.64624023 116.46923828 C456.84013409 117.95253963 455.02039191 119.41935224 453.18920898 120.87158203 C450.8467518 122.73566079 448.57227495 124.66393437 446.31420898 126.62939453 C445.68135986 127.18014648 445.04851074 127.73089844 444.39648438 128.29833984 C443.14778135 129.38920527 441.90209285 130.48353248 440.65966797 131.58154297 C436.28312355 135.39111328 436.28312355 135.39111328 434.06420898 135.39111328 C433.60272461 134.55451172 433.14124023 133.71791016 432.66577148 132.85595703 C424.74227978 118.64653654 416.02260576 105.4509984 405.06420898 93.39111328 C404.27530273 92.51841797 403.48639648 91.64572266 402.67358398 90.74658203 C389.92075592 77.3392214 372.70595532 65.38540323 354.81030273 60.24267578 C352.06420898 59.39111328 352.06420898 59.39111328 348.71655273 57.89501953 C326.54955758 48.76743329 296.36203819 51.45301376 274.40795898 59.88720703 C256.32823745 68.01885749 242.18714058 81.33378664 235.09155273 99.94189453 C230.42474349 114.59350496 232.97593174 128.6887646 239.81420898 142.14111328 C249.42177627 158.61463436 265.58962313 167.91570529 282.06420898 176.39111328 C282.68489258 176.71176758 283.30557617 177.03242187 283.94506836 177.36279297 C303.41369917 187.2699708 324.63206744 193.67716607 345.25170898 200.70361328 C346.27917236 201.05390594 347.30663574 201.40419861 348.36523438 201.7651062 C363.35222487 206.87408776 363.35222487 206.87408776 378.47314453 211.56665039 C382.30086545 212.78461077 385.96427335 214.3283772 389.65014648 215.91845703 C392.25119893 217.0404213 394.85749731 218.13345917 397.47827148 219.20751953 C407.91190407 223.50014086 418.09829424 228.09793794 428.06420898 233.39111328 C428.67635254 233.7157959 429.28849609 234.04047852 429.91918945 234.375 C454.4531951 247.53623293 478.0536819 268.24111146 489.06420898 294.39111328 C489.5904747 296.75477221 489.86240342 298.96944654 490.06420898 301.39111328 C490.72420898 301.39111328 491.38420898 301.39111328 492.06420898 301.39111328 C492.71360634 303.7651892 493.35880952 306.14027718 494.00170898 308.51611328 C494.18411133 309.18126953 494.36651367 309.84642578 494.55444336 310.53173828 C500.95746052 334.28111104 498.88271224 363.32020958 488.06420898 385.39111328 C487.49959961 386.57060547 486.93499023 387.75009766 486.35327148 388.96533203 C471.23561813 419.47722938 443.40610563 439.34181578 411.68920898 450.32861328 C408.49361164 451.39307647 405.28395903 452.40244003 402.06420898 453.39111328 C401.30881836 453.62910645 400.55342773 453.86709961 399.77514648 454.11230469 C386.42219837 458.30836395 373.04951456 461.3017679 359.14624023 462.96142578 C356.03423645 463.29988025 356.03423645 463.29988025 353.06420898 464.39111328 C321.0478418 468.9445688 285.92961863 468.51341365 254.06420898 463.39111328 C252.03709586 463.09655302 250.0097469 462.80361161 247.98217773 462.51220703 C224.65355087 459.02602106 201.64637932 452.99781105 180.06420898 443.39111328 C179.44352539 443.11960449 178.8228418 442.8480957 178.18334961 442.56835938 C161.50707103 435.23095886 146.09280398 426.04135045 132.06420898 414.39111328 C131.1219043 413.61380859 130.17959961 412.83650391 129.20874023 412.03564453 C115.11765294 399.85251828 102.92609482 383.14586366 97.06420898 365.39111328 C97.06420898 364.40111328 97.06420898 363.41111328 97.06420898 362.39111328 C96.40420898 362.39111328 95.74420898 362.39111328 95.06420898 362.39111328 C94.9346582 363.40238281 94.9346582 363.40238281 94.80249023 364.43408203 C93.86183425 368.20168297 92.15547179 371.35400651 90.25170898 374.70361328 C89.85790039 375.3985791 89.4640918 376.09354492 89.05834961 376.80957031 C82.1568134 388.66858558 73.55268319 399.50329252 64.06420898 409.39111328 C63.17475586 410.34373047 62.28530273 411.29634766 61.36889648 412.27783203 C35.19445888 439.80466731 -2.28141601 455.95489181 -38.93579102 463.39111328 C-39.75096191 463.56900391 -40.56613281 463.74689453 -41.40600586 463.93017578 C-78.01905767 471.7942193 -120.61587831 467.37401063 -153.93579102 450.39111328 C-154.91161133 449.90771484 -155.88743164 449.42431641 -156.89282227 448.92626953 C-182.58058028 435.65977362 -201.49237455 413.34669427 -210.31079102 385.95361328 C-219.23888807 356.41043806 -218.40698672 324.6940449 -204.01049805 296.99536133 C-203.00291708 295.11708627 -201.97533091 293.25185872 -200.93579102 291.39111328 C-200.11981445 289.91191406 -200.11981445 289.91191406 -199.28735352 288.40283203 C-194.89608677 281.00194101 -189.2393437 274.9277848 -183.27954102 268.78173828 C-182.18116265 267.64504439 -181.10240624 266.48941828 -180.02954102 265.32861328 C-152.66106175 236.35022347 -107.01144895 223.27689401 -69.65405273 213.67431641 C-63.81587278 212.16707697 -58.01960616 210.57370294 -52.24829102 208.82861328 C-47.23204731 207.31194985 -42.20990963 205.9434436 -37.11328125 204.72290039 C-23.5165195 201.46421757 -10.20960849 197.33329037 3.08862305 193.02972412 C5.08733181 192.3836388 7.08745969 191.7420789 9.08764648 191.10058594 C49.64448419 178.97133913 49.64448419 178.97133913 81.06420898 152.39111328 C81.44963867 151.85228516 81.83506836 151.31345703 82.23217773 150.75830078 C91.4481133 136.45197482 87.25614077 115.06249111 84.06420898 99.39111328 C80.90449738 86.20275178 74.22347932 72.43981689 65.06420898 62.39111328 C64.33717773 61.57255859 63.61014648 60.75400391 62.86108398 59.91064453 C46.44634761 42.41041752 22.28797764 34.13780545 -1.30151367 33.2668457 C-22.3522363 32.63359441 -22.3522363 32.63359441 -42.93579102 36.39111328 C-43.61931641 36.58447266 -44.3028418 36.77783203 -45.00708008 36.97705078 C-85.36087462 48.49147564 -108.69685954 77.13913426 -128.39916992 112.56567383 C-132.42858258 119.97469714 -135.84555214 127.54666076 -138.93579102 135.39111328 C-143.46360622 133.79510179 -147.28414579 131.45089869 -151.31079102 128.89111328 C-152.00906006 128.45041504 -152.7073291 128.0097168 -153.42675781 127.55566406 C-164.51962153 120.52165234 -175.39711956 113.23486459 -185.93579102 105.39111328 C-184.42513125 99.99711909 -181.91542656 95.61592305 -178.99829102 90.89111328 C-178.51247559 90.1015625 -178.02666016 89.31201172 -177.52612305 88.49853516 C-170.45952495 77.21928873 -162.06194067 67.06451 -152.93579102 57.39111328 C-151.85491211 56.21355469 -151.85491211 56.21355469 -150.75219727 55.01220703 C-130.41353871 33.64461128 -101.33901044 17.00559338 -72.93579102 9.39111328 C-72.05262207 9.15054199 -71.16945313 8.9099707 -70.25952148 8.66210938 C-67.17863593 7.83724519 -64.0907861 7.04627738 -60.99829102 6.26611328 C-60.0651709 6.02401123 -59.13205078 5.78190918 -58.1706543 5.5324707 C-39.05169655 0.91967797 -19.5968151 -0.10673498 0 0 Z " fill="#FCFCFD" transform="translate(453.935791015625,445.60888671875)"/>
<path d="M0 0 C413.82 0 827.64 0 1254 0 C1254 413.82 1254 827.64 1254 1254 C840.18 1254 426.36 1254 0 1254 C0 840.18 0 426.36 0 0 Z M201.4375 13.5625 C200.46119629 13.81298096 199.48489258 14.06346191 198.47900391 14.3215332 C164.87196577 23.28570379 132.38520686 38.16179475 105.61523438 60.64501953 C103.99079178 62.00772455 102.34830427 63.34603782 100.703125 64.68359375 C86.15373736 76.671024 72.36639376 90.05914418 61.24169922 105.31396484 C59.96174945 107.05193832 58.64376562 108.75505627 57.31640625 110.45703125 C49.44887206 120.67350047 43.11934312 131.66821241 37 143 C36.61183105 143.71833008 36.22366211 144.43666016 35.82373047 145.17675781 C24.82741809 165.77429083 17.27149804 187.67295444 12.75 210.5625 C12.59885742 211.31523193 12.44771484 212.06796387 12.29199219 212.84350586 C8.77790594 231.9151579 8.70540782 251.09782698 8.73686353 270.41551729 C8.74108132 274.38216028 8.73360536 278.34878563 8.72771102 282.31542414 C8.71899443 289.24958771 8.71762063 296.18372173 8.72121429 303.1178894 C8.72654425 313.42977859 8.72040307 323.74163941 8.71213136 334.05352552 C8.69692438 353.54564736 8.69518286 373.03775617 8.69765439 392.52988271 C8.69948987 407.58498878 8.69772209 422.64009061 8.69342995 437.69519615 C8.69282754 439.86118595 8.69222634 442.02717574 8.69162634 444.19316554 C8.69071905 447.45743359 8.68981038 450.72170164 8.68889399 453.98596969 C8.68046953 484.31879868 8.67612531 514.65162607 8.68030071 544.98445606 C8.68045709 546.12695528 8.68061346 547.2694545 8.68077458 548.44657491 C8.68158031 554.23669748 8.68242609 560.02682004 8.68328788 565.81694261 C8.68345897 566.96679946 8.68363006 568.1166563 8.68380633 569.30135729 C8.68415299 571.62664392 8.68450152 573.95193056 8.68485192 576.27721719 C8.69020905 612.45833998 8.68227682 648.6394384 8.66381836 684.82055664 C8.64308555 725.50697364 8.63237801 766.19337554 8.63639385 806.87979811 C8.63678917 811.22098426 8.63715072 815.5621704 8.63749123 819.90335655 C8.63758196 820.97220059 8.63767269 822.04104462 8.63776617 823.14227787 C8.63893028 839.25068422 8.63229808 855.35907527 8.62167931 871.4674778 C8.60961026 889.79415964 8.60808805 908.12080789 8.62046947 926.44749025 C8.6270815 936.69187949 8.62550535 946.93618831 8.61188096 957.18057105 C8.60360047 964.03784317 8.60638044 970.89505542 8.61785623 977.75232274 C8.62407713 981.64970978 8.62580669 985.54694061 8.61399289 989.44431827 C8.55341252 1010.86959236 9.61830532 1031.81683106 14.5625 1052.75 C14.81080566 1053.80944824 15.05911133 1054.86889648 15.31494141 1055.96044922 C19.69999123 1073.72211569 26.28998517 1091.12485723 35.03222656 1107.20703125 C36.04515266 1109.08365315 37.02110623 1110.97641769 37.9921875 1112.875 C42.15747893 1120.95919391 46.77137609 1128.54561325 52 1136 C52.80351825 1137.16787737 53.60689825 1138.33584986 54.41015625 1139.50390625 C59.48626936 1146.81544439 64.91220168 1153.48959655 71 1160 C72.17277794 1161.32796114 73.33976703 1162.66106448 74.5 1164 C75.66647593 1165.3335002 76.83315492 1166.6668228 78 1168 C79.06541016 1169.22396484 79.06541016 1169.22396484 80.15234375 1170.47265625 C84.11459731 1174.96321029 88.09545933 1179.20315342 92.6875 1183.05078125 C94.44693934 1184.53382218 96.1699188 1186.06023891 97.875 1187.60546875 C139.03225892 1224.62638253 196.9476891 1247.20209966 252.25293446 1247.13422108 C254.21994408 1247.13774942 254.21994408 1247.13774942 256.22669128 1247.14134905 C259.85803609 1247.14771303 263.48935866 1247.14791357 267.12070798 1247.14707164 C271.07495784 1247.14724186 275.0291999 1247.15315605 278.98344582 1247.1583125 C286.8227333 1247.16761974 294.66201514 1247.17155738 302.50130745 1247.17383147 C311.89345018 1247.17679852 321.28558547 1247.185499 330.67772428 1247.19424575 C353.38038163 1247.21507279 376.08304027 1247.22555803 398.78570494 1247.23437535 C409.53287698 1247.23858518 420.28004846 1247.24380679 431.02722003 1247.24905988 C467.83851798 1247.26695042 504.6498161 1247.28194417 541.46111774 1247.28938007 C543.77147351 1247.28985483 546.08182928 1247.29033071 548.39218504 1247.29080774 C549.53788112 1247.29104411 550.68357721 1247.29128049 551.86399135 1247.29152403 C557.66836077 1247.29272519 563.47273019 1247.29394065 569.27709961 1247.29516602 C570.42898182 1247.29540617 571.58086403 1247.29564632 572.76765177 1247.29589374 C610.08703522 1247.30378094 647.40638682 1247.32720062 684.72575638 1247.35972196 C724.20970431 1247.39406654 763.69363363 1247.41373559 803.17759675 1247.41702431 C807.51736113 1247.41744183 811.8571255 1247.41792139 816.19688988 1247.41844749 C817.26541123 1247.41857069 818.33393258 1247.41869388 819.43483337 1247.4188208 C836.58771384 1247.42114728 853.74055717 1247.43677648 870.89342443 1247.45728934 C888.15735456 1247.47760636 905.42124036 1247.48299699 922.68518022 1247.47351871 C932.92384066 1247.46832624 943.16235289 1247.47407379 953.40099182 1247.49605338 C960.2624513 1247.50966148 967.12380992 1247.50839719 973.98527064 1247.49565142 C977.88034498 1247.48882051 981.77513814 1247.48785417 985.6701862 1247.50521151 C1010.21103943 1247.60778234 1034.383151 1246.21258783 1058 1239 C1060.3399794 1238.40425371 1062.68118738 1237.81331762 1065.0234375 1237.2265625 C1072.69719693 1235.22740078 1079.94436419 1232.46240012 1087.25 1229.375 C1087.87219421 1229.11465973 1088.49438843 1228.85431946 1089.13543701 1228.58609009 C1104.09408306 1222.31716642 1118.60565167 1215.20492661 1132 1206 C1132.79301514 1205.45956055 1132.79301514 1205.45956055 1133.60205078 1204.90820312 C1142.53264521 1198.79337857 1150.90300414 1192.17804915 1159 1185 C1159.54543457 1184.51772949 1160.09086914 1184.03545898 1160.65283203 1183.53857422 C1182.13274514 1164.42920626 1199.63950527 1141.84962401 1214 1117 C1214.4213623 1116.27925293 1214.84272461 1115.55850586 1215.27685547 1114.81591797 C1238.58968402 1074.48044616 1245.69375098 1029.48160187 1245.50766886 983.53373993 C1245.49637785 979.60800836 1245.50885408 975.68232839 1245.51797634 971.75660086 C1245.53074732 964.91107193 1245.52902514 958.06567316 1245.51719666 951.22014427 C1245.49965503 941.03983229 1245.50537174 930.8596207 1245.51536357 920.67930318 C1245.53247369 902.486818 1245.52706696 884.29439346 1245.51200638 866.10190959 C1245.49891221 850.18057995 1245.49376677 834.25927127 1245.49632454 818.3379364 C1245.49648495 817.27846552 1245.49664537 816.21899465 1245.49681065 815.12741859 C1245.49747432 810.82579531 1245.49817675 806.52417205 1245.49893599 802.22254879 C1245.50594712 761.93749474 1245.49051219 721.65247753 1245.46431253 681.36743286 C1245.44120054 645.64093976 1245.4358107 609.91448716 1245.44604492 574.18798828 C1245.44864731 565.03710685 1245.45123244 555.88622542 1245.45364285 546.73534393 C1245.45394029 545.60847169 1245.45423774 544.48159944 1245.4545442 543.32057955 C1245.46217311 513.39448661 1245.45573436 483.46839694 1245.44494683 453.54230547 C1245.44379912 450.31906412 1245.44265594 447.09582277 1245.44152 443.87258141 C1245.44076476 441.73472083 1245.43999911 439.59686025 1245.43922299 437.45899967 C1245.43358405 421.55458739 1245.43488145 405.65018562 1245.43945122 389.74577332 C1245.44457787 371.64685399 1245.43862301 353.54797376 1245.41855692 335.44906414 C1245.40763689 325.34183367 1245.40471521 315.23468016 1245.41384545 305.12744747 C1245.41911602 298.35177303 1245.41323644 291.57616364 1245.39879211 284.80050279 C1245.39088918 280.95648235 1245.3872885 277.11261579 1245.39736467 273.26859683 C1245.45904903 247.66232691 1245.29293942 220.74863729 1238 196 C1237.69771484 194.95682617 1237.39542969 193.91365234 1237.08398438 192.83886719 C1229.23702826 166.33507096 1218.21245061 140.52032924 1202 118 C1201.46020508 117.23300781 1200.92041016 116.46601562 1200.36425781 115.67578125 C1192.90449851 105.08990737 1185.08423161 95.22438833 1176 86 C1175.34064453 85.32163086 1174.68128906 84.64326172 1174.00195312 83.94433594 C1165.73843832 75.45106981 1157.49759753 67.12633474 1148 60 C1147.3920459 59.53207031 1146.7840918 59.06414063 1146.15771484 58.58203125 C1127.96756548 44.62409107 1108.12945087 33.81597557 1087 25 C1086.24412598 24.67805664 1085.48825195 24.35611328 1084.70947266 24.02441406 C1054.28773071 11.1382047 1021.89163617 7.20298437 989.12229218 7.37006495 C985.10079077 7.38483235 981.07936499 7.36993909 977.05786562 7.35917997 C970.04137182 7.34433991 963.02507948 7.34767819 956.0085907 7.36359787 C945.57458419 7.38720547 935.14072682 7.38176137 924.7067064 7.37088897 C906.06454194 7.35238127 887.42247362 7.36194785 868.78031706 7.38336661 C852.47060803 7.40197182 836.16093119 7.41034137 819.85121155 7.40879822 C818.76658405 7.40870654 817.68195655 7.40861487 816.56446155 7.40852041 C812.16096515 7.40812722 807.75746877 7.40767758 803.35397238 7.40714902 C762.11033261 7.40228608 720.8667499 7.4248875 679.62312786 7.46110525 C643.01762031 7.49311286 606.41216146 7.50514513 569.80664062 7.49902344 C567.45483651 7.49863659 565.10303239 7.49825013 562.75122827 7.49786407 C561.58851253 7.49767272 560.42579679 7.49748138 559.22784724 7.49728423 C553.37430773 7.49632982 547.52076822 7.49541546 541.6672287 7.49454498 C540.51229192 7.49437119 539.35735513 7.4941974 538.16742026 7.49401833 C507.53038434 7.48965979 476.89335364 7.49968426 446.25632143 7.51438284 C444.62088056 7.51516305 444.62088056 7.51516305 442.95240048 7.51595903 C441.86415057 7.51647837 440.77590067 7.51699771 439.65467349 7.5175328 C438.02537459 7.51830941 438.02537459 7.51830941 436.36316057 7.51910171 C434.17577844 7.52014979 431.98839631 7.52121 429.8010142 7.52228243 C414.5784535 7.52965082 399.35590023 7.5317535 384.13333797 7.53028842 C364.5182685 7.52843992 344.90324483 7.53655894 325.28819031 7.56192988 C314.92558661 7.57505597 304.56305599 7.5801284 294.2004458 7.57329134 C287.26723606 7.5695628 280.33409266 7.57685534 273.40090063 7.59288373 C269.45866972 7.60170455 265.5165884 7.60603089 261.57435459 7.59695655 C241.14718786 7.55405562 221.3095629 8.41675605 201.4375 13.5625 Z " fill="#FCFCFD" transform="translate(0,0)"/>
<path d="M0 0 C1.01835938 0.15597656 2.03671875 0.31195313 3.0859375 0.47265625 C6.06641016 0.93811064 9.03091415 1.46718615 12 2 C13.04285156 2.15726562 14.08570313 2.31453125 15.16015625 2.4765625 C37.22337971 6.20766004 60.75110332 14.89907417 79 28 C80.95694772 29.27296599 82.9153911 30.54363446 84.875 31.8125 C94.45796888 38.24936212 102.77074733 45.56554768 111 53.625 C111.7427417 54.34163818 112.4854834 55.05827637 113.25073242 55.79663086 C118.00187926 60.53248841 121.39483296 64.5202879 122.3203125 71.37109375 C121.58116642 79.19125931 117.3462528 83.1240606 111.58203125 88.078125 C109.77592511 89.56142635 107.95618293 91.02823896 106.125 92.48046875 C103.78254281 94.3445475 101.50806596 96.27282109 99.25 98.23828125 C98.61715088 98.7890332 97.98430176 99.33978516 97.33227539 99.90722656 C96.08357236 100.99809198 94.83788387 102.0924192 93.59545898 103.19042969 C89.21891456 107 89.21891456 107 87 107 C86.53851562 106.16339844 86.07703125 105.32679688 85.6015625 104.46484375 C77.6780708 90.25542326 68.95839678 77.05988512 58 65 C56.81664062 63.69095703 56.81664062 63.69095703 55.609375 62.35546875 C42.85654694 48.94810812 25.64174633 36.99428995 7.74609375 31.8515625 C5 31 5 31 1.65234375 29.50390625 C-20.51465141 20.37632001 -50.70217079 23.06190048 -72.65625 31.49609375 C-90.73597154 39.62774421 -104.8770684 52.94267336 -111.97265625 71.55078125 C-116.6394655 86.20239168 -114.08827724 100.29765132 -107.25 113.75 C-97.64243272 130.22352108 -81.47458586 139.52459201 -65 148 C-64.06897461 148.48098145 -64.06897461 148.48098145 -63.11914062 148.97167969 C-43.65050981 158.87885752 -22.43214154 165.28605279 -1.8125 172.3125 C-0.78503662 172.66279266 0.24242676 173.01308533 1.30102539 173.37399292 C16.28801589 178.48297448 16.28801589 178.48297448 31.40893555 183.17553711 C35.23665647 184.39349749 38.90006437 185.93726392 42.5859375 187.52734375 C45.18698994 188.64930802 47.79328833 189.74234589 50.4140625 190.81640625 C60.84769509 195.10902758 71.03408526 199.70682465 81 205 C81.61214355 205.32468262 82.22428711 205.64936523 82.85498047 205.98388672 C107.38898611 219.14511965 130.98947292 239.84999818 142 266 C142.52626571 268.36365893 142.79819444 270.57833325 143 273 C143.66 273 144.32 273 145 273 C145.64939736 275.37407592 146.29460053 277.7491639 146.9375 280.125 C147.11990234 280.79015625 147.30230469 281.4553125 147.49023438 282.140625 C153.89325154 305.88999776 151.81850326 334.9290963 141 357 C140.43539063 358.17949219 139.87078125 359.35898437 139.2890625 360.57421875 C124.12289534 391.1840313 96.20001079 411.03091847 64.375 422 C61.2604451 423.03512247 58.13313908 424.02290201 55 425 C53.66868281 425.43439989 52.33791415 425.87048606 51.0078125 426.30859375 C42.64489619 429 42.64489619 429 38 429 C36.68323522 425.75171176 35.37233863 422.50108665 34.0625 419.25 C33.68931641 418.32960938 33.31613281 417.40921875 32.93164062 416.4609375 C32.57392578 415.57148437 32.21621094 414.68203125 31.84765625 413.765625 C31.3527771 412.54020996 31.3527771 412.54020996 30.84790039 411.29003906 C30.07597895 409.20520661 29.4893803 407.16632348 29 405 C30.13695312 404.52691406 31.27390625 404.05382812 32.4453125 403.56640625 C51.04654455 395.66933221 68.27747726 385.85215829 79 368 C79.47179687 367.22140625 79.94359375 366.4428125 80.4296875 365.640625 C87.43659123 352.95356854 88.71396139 337.85132312 85.81640625 323.7890625 C79.65643334 302.74494453 61.44250944 288.233575 43 278 C34.78914621 273.7443342 26.40635012 269.85087979 18 266 C17.0311084 265.54729736 16.0622168 265.09459473 15.06396484 264.62817383 C9.89367534 262.2302491 4.81391668 260.13790206 -0.625 258.4375 C-4.6141753 257.16094396 -8.52375698 255.86382772 -12.3125 254.0625 C-16.68988663 252.00645476 -21.22114014 250.55579723 -25.8125 249.0625 C-32.00248269 247.04397251 -38.03183466 244.85989998 -44.015625 242.28125 C-47.46801125 240.7990737 -50.94848199 239.39295732 -54.4375 238 C-55.07397461 237.74460449 -55.71044922 237.48920898 -56.36621094 237.22607422 C-60.36767688 235.62732431 -64.39496783 234.11593389 -68.4375 232.625 C-76.23873356 229.63039445 -83.61991546 225.90027352 -91 222 C-91.66435059 221.64921387 -92.32870117 221.29842773 -93.01318359 220.93701172 C-123.62077792 204.61246287 -152.23978909 182.06601199 -163.09008789 147.76806641 C-171.91239791 118.28203284 -169.53231729 88.2356033 -154.94873047 61.03955078 C-147.18357839 47.32461815 -136.65861807 35.35310356 -124 26 C-123.21367188 25.39929688 -122.42734375 24.79859375 -121.6171875 24.1796875 C-106.01679747 12.69821233 -87.02196665 4.60487807 -68 1 C-67.32469238 0.86609863 -66.64938477 0.73219727 -65.95361328 0.59423828 C-44.6148115 -3.50034294 -21.41436862 -3.77747378 0 0 Z " fill="#FBDB32" transform="translate(801,474)"/>
<path d="M0 0 C0.04675693 12.23271551 0.082086 24.46540906 0.10362434 36.69819641 C0.11397214 42.38102419 0.12796234 48.06378994 0.15087891 53.74658203 C0.17293407 59.2514912 0.18463588 64.75634149 0.18975449 70.2612915 C0.19339263 72.34036178 0.20049249 74.41942959 0.21146011 76.49847412 C0.42860871 119.44955877 -5.16931612 162.43636566 -35.9921875 194.8515625 C-38.05971216 196.99776059 -38.05971216 196.99776059 -39.9375 199.5 C-57.5356693 220.8311143 -90.6100004 234.47985299 -117.4765625 237.640625 C-145.98922484 240.15835668 -175.65537869 236.27569705 -198.6171875 217.90625 C-209.12506082 208.83562379 -217.46485806 198.15191162 -222 185 C-222.33 184.34 -222.66 183.68 -223 183 C-226.87826485 160.2357324 -223.85598676 139.21215413 -210.93359375 119.9140625 C-201.81431933 107.22212065 -190.85323333 97.66196159 -178 89 C-177.43925781 88.62166016 -176.87851562 88.24332031 -176.30078125 87.85351562 C-156.45566766 74.72557232 -133.87386619 65.85139687 -111.74414062 57.42871094 C-53.02607674 37.27295628 -53.02607674 37.27295628 -3.671875 1.6171875 C-2 0 -2 0 0 0 Z " fill="#0360FC" transform="translate(546,627)"/>
<path d="M0 0 C0.66 0 1.32 0 2 0 C2.07516846 0.7434668 2.15033691 1.48693359 2.2277832 2.25292969 C5.02785665 50.45494775 5.02785665 50.45494775 27.3125 91.25 C40.76796976 102.12013932 61.81199419 104.93644215 78.375 107.125 C80.19257812 107.37830078 80.19257812 107.37830078 82.046875 107.63671875 C90.35763675 108.76194982 98.6297277 109.4980082 107 110 C107 110.99 107 111.98 107 113 C106.0298999 113.09498779 105.0597998 113.18997559 104.06030273 113.2878418 C58.35558676 115.90320907 58.35558676 115.90320907 20.8125 138.625 C5.11763537 161.23408877 4.53063268 194.59787938 2 221 C1.01 220.67 0.02 220.34 -1 220 C-1.03440186 219.42483643 -1.06880371 218.84967285 -1.10424805 218.25708008 C-3.08627396 173.0014788 -3.08627396 173.0014788 -23.0234375 133.96484375 C-44.04018561 116.09681422 -79.89739198 114.81186275 -106 113 C-106 112.01 -106 111.02 -106 110 C-105.39978027 109.97083496 -104.79956055 109.94166992 -104.18115234 109.91162109 C-90.99760194 109.20965595 -78.12620141 107.71790995 -65.1875 105.125 C-63.95628418 104.88056152 -62.72506836 104.63612305 -61.45654297 104.38427734 C-51.46362777 102.29897612 -41.69265402 99.66005087 -32.5625 95 C-31.61503906 94.525625 -30.66757812 94.05125 -29.69140625 93.5625 C-16.91156724 86.14314499 -12.65501892 72.51134131 -9 59 C-7.42085374 52.71356573 -6.14456232 46.37851993 -5 40 C-4.79632812 38.86820312 -4.59265625 37.73640625 -4.3828125 36.5703125 C-2.94498591 27.5230652 -2.33915716 18.39787528 -1.69677734 9.26513672 C-1.58197021 7.68563232 -1.58197021 7.68563232 -1.46484375 6.07421875 C-1.399021 5.12119873 -1.33319824 4.16817871 -1.26538086 3.1862793 C-1 1 -1 1 0 0 Z " fill="#FADB31" transform="translate(881,257)"/>
<path d="M0 0 C0.66 0 1.32 0 2 0 C2.53821609 4.45641118 3.05237369 8.91529314 3.5625 13.375 C3.71396484 14.62667969 3.86542969 15.87835938 4.02148438 17.16796875 C5.65591997 31.68783844 5.65591997 31.68783844 4 38 C3.01 38.495 3.01 38.495 2 39 C1.67 38.34 1.34 37.68 1 37 C0.01 39.64 -0.98 42.28 -2 45 C-2.99 45 -3.98 45 -5 45 C-4.47999544 36.48834647 -3.71484183 28.0417371 -2.7331543 19.57299805 C-2.1019437 14.08613929 -1.61654415 8.6012385 -1.24609375 3.08984375 C-1 1 -1 1 0 0 Z " fill="#F0D932" transform="translate(881,257)"/>
<path d="M0 0 C-0.33 0.66 -0.66 1.32 -1 2 C3.29 2.99 7.58 3.98 12 5 C12 5.33 12 5.66 12 6 C5.7673659 6.10921672 -0.30111605 5.68950333 -6.5 5.0625 C-7.39847656 4.97548828 -8.29695312 4.88847656 -9.22265625 4.79882812 C-14.49381192 4.28091982 -19.74748922 3.68110829 -25 3 C-25 2.01 -25 1.02 -25 0 C-16.47597263 -1.08241617 -8.49183781 -1.4454192 0 0 Z " fill="#D8CA47" transform="translate(800,367)"/>
<path d="M0 0 C0.33 0.66 0.66 1.32 1 2 C1.99 2 2.98 2 4 2 C3.4017071 10.00694114 2.7529365 18.00605711 2 26 C1.01 25.67 0.02 25.34 -1 25 C-1.02908357 21.58335127 -1.04682691 18.1667345 -1.0625 14.75 C-1.07087891 13.78191406 -1.07925781 12.81382812 -1.08789062 11.81640625 C-1.09111328 10.88183594 -1.09433594 9.94726562 -1.09765625 8.984375 C-1.10289307 8.12553711 -1.10812988 7.26669922 -1.11352539 6.38183594 C-1.00539986 4.11329256 -0.63582423 2.17368285 0 0 Z " fill="#EBD934" transform="translate(881,452)"/>
<path d="M0 0 C0.66 0.33 1.32 0.66 2 1 C-3.21015556 7.69621368 -3.21015556 7.69621368 -6.4375 8.9375 C-10.06739843 10.44257984 -11.83963536 13.09182826 -14.25390625 16.125 C-16.09504146 18.10205795 -17.45463535 19.11290262 -20 20 C-20.99 19.67 -21.98 19.34 -23 19 C-15.68643874 12.05658407 -8.32873072 5.72190359 0 0 Z " fill="#E8D83A" transform="translate(685,494)"/>
<path d="M0 0 C0.66 0 1.32 0 2 0 C2.22171552 2.60365928 2.42784859 5.20696493 2.625 7.8125 C2.68945312 8.55048828 2.75390625 9.28847656 2.8203125 10.04882812 C3.2265625 15.66015625 3.2265625 15.66015625 1 19 C0.67 18.34 0.34 17.68 0 17 C-0.66 18.32 -1.32 19.64 -2 21 C-1.86179731 17.6871348 -1.71316222 14.37482011 -1.5625 11.0625 C-1.52318359 10.11697266 -1.48386719 9.17144531 -1.44335938 8.19726562 C-1.40146484 7.29814453 -1.35957031 6.39902344 -1.31640625 5.47265625 C-1.27974854 4.64000244 -1.24309082 3.80734863 -1.20532227 2.94946289 C-1 1 -1 1 0 0 Z " fill="#DAD241" transform="translate(881,257)"/>
<path d="M0 0 C0.33 0.99 0.66 1.98 1 3 C-3.29 7.29 -7.58 11.58 -12 16 C-12.66 15.01 -13.32 14.02 -14 13 C-12.23223041 11.20521865 -10.46097441 9.4141293 -8.6875 7.625 C-8.18798828 7.11710938 -7.68847656 6.60921875 -7.17382812 6.0859375 C-4.87457613 3.77145867 -2.72478775 1.81652517 0 0 Z " fill="#1868FA" transform="translate(356,725)"/>
<path d="M0 0 C2.75059381 -0.08107646 5.49879021 -0.14052813 8.25 -0.1875 C9.02730469 -0.21263672 9.80460938 -0.23777344 10.60546875 -0.26367188 C11.35957031 -0.27333984 12.11367188 -0.28300781 12.890625 -0.29296875 C13.92751465 -0.31653442 13.92751465 -0.31653442 14.98535156 -0.34057617 C17 0 17 0 21 3 C14.07 3 7.14 3 0 3 C0 2.01 0 1.02 0 0 Z " fill="#EDDA2B" transform="translate(775,367)"/>
<path d="M0 0 C0.33 0.99 0.66 1.98 1 3 C-0.27358732 4.71275535 -1.61423077 6.37667033 -3 8 C-3.309375 8.680625 -3.61875 9.36125 -3.9375 10.0625 C-5.45686749 12.8331113 -7.38431237 14.277474 -10 16 C-10.99 15.67 -11.98 15.34 -13 15 C-11.57621053 11.63602074 -9.87389574 9.80356448 -7.0625 7.5 C-4.26759113 5.20138336 -2.07773528 2.97005419 0 0 Z " fill="#E9D83A" transform="translate(875,849)"/>
<path d="M0 0 C-1.66397558 4.24211059 -4.70471775 7.03622424 -7.875 10.1875 C-8.66970703 11.00637695 -8.66970703 11.00637695 -9.48046875 11.84179688 C-12.24437614 14.60913343 -14.15575291 16.28314457 -18 17 C-3.95652174 0 -3.95652174 0 0 0 Z " fill="#1D67FA" transform="translate(526,848)"/>
<path d="M0 0 C0.33 0 0.66 0 1 0 C1.09243891 5.70480127 0.28600192 9.22517626 -3.5625 13.5625 C-4.69004005 14.72633912 -5.82998843 15.8788662 -7 17 C-7.66 16.34 -8.32 15.68 -9 15 C-8.04737966 13.51714758 -7.08771595 12.03881799 -6.125 10.5625 C-5.32449219 9.32693359 -5.32449219 9.32693359 -4.5078125 8.06640625 C-3 6 -3 6 -1 5 C-0.34444881 2.47266765 -0.34444881 2.47266765 0 0 Z " fill="#EBD435" transform="translate(922,543)"/>
<path d="M0 0 C-3.26737303 3.26737303 -6.83168198 3.95672896 -11.375 4.125 C-12.24125 4.08375 -13.1075 4.0425 -14 4 C-14 3.01 -14 2.02 -14 1 C-12.41913952 0.63495397 -10.83516093 0.28339494 -9.25 -0.0625 C-8.36828125 -0.25972656 -7.4865625 -0.45695312 -6.578125 -0.66015625 C-4.01320972 -0.99825872 -2.42908361 -0.81158635 0 0 Z " fill="#E9D73C" transform="translate(830,361)"/>
<path d="M0 0 C0.66 0.33 1.32 0.66 2 1 C-1.86364295 5.48717034 -5.74790208 9.87675353 -10 14 C-10.66 13.67 -11.32 13.34 -12 13 C-8.13635705 8.51282966 -4.25209792 4.12324647 0 0 Z " fill="#1467EE" transform="translate(709,516)"/>
<path d="M0 0 C1.73443359 0.00676758 1.73443359 0.00676758 3.50390625 0.01367188 C6.33599225 0.02537471 9.16796811 0.04177004 12 0.0625 C12 0.3925 12 0.7225 12 1.0625 C10.97845825 1.10008423 10.97845825 1.10008423 9.9362793 1.13842773 C6.85316245 1.25440952 3.77034954 1.37712616 0.6875 1.5 C-0.38435547 1.53931641 -1.45621094 1.57863281 -2.56054688 1.61914062 C-4.10258789 1.68198242 -4.10258789 1.68198242 -5.67578125 1.74609375 C-6.62364502 1.78275146 -7.57150879 1.81940918 -8.5480957 1.85717773 C-11.136171 1.97680187 -11.136171 1.97680187 -14 3.0625 C-16.3406065 2.78480092 -18.67624308 2.45710023 -21 2.0625 C-21 1.7325 -21 1.4025 -21 1.0625 C-13.97942879 -0.03016243 -7.09531697 -0.05282882 0 0 Z " fill="#608EB6" transform="translate(769,497.9375)"/>
<path d="M0 0 C4.95 0 9.9 0 15 0 C15 0.99 15 1.98 15 3 C9.47322267 3.19392201 5.24385089 2.7479503 0 1 C0 0.67 0 0.34 0 0 Z " fill="#EDD728" transform="translate(973,367)"/>
<path d="M0 0 C0.99 0.495 0.99 0.495 2 1 C2 1.66 2 2.32 2 3 C2.99 3 3.98 3 5 3 C5.33 4.32 5.66 5.64 6 7 C6.66 7 7.32 7 8 7 C7.67 8.98 7.34 10.96 7 13 C0 4.55172414 0 4.55172414 0 0 Z " fill="#EDD93C" transform="translate(875,556)"/>
<path d="M0 0 C-1.37940148 3.33355357 -2.72687457 5.36343728 -6 7 C-9.25 6.1875 -9.25 6.1875 -12 5 C-8.45976076 2.63984051 -4.36489861 0 0 0 Z " fill="#E5D446" transform="translate(844,874)"/>
<path d="M0 0 C0.33 0 0.66 0 1 0 C2.32 5.61 3.64 11.22 5 17 C4.34 17.33 3.68 17.66 3 18 C2.34 16.35 1.68 14.7 1 13 C0.67 13 0.34 13 0 13 C0 8.71 0 4.42 0 0 Z " fill="#E7D13E" transform="translate(890,313)"/>
<path d="M0 0 C1.25631019 3.58218177 0.7448506 6.00647476 -0.25 9.625 C-0.62898437 11.06746094 -0.62898437 11.06746094 -1.015625 12.5390625 C-2 15 -2 15 -5 17 C-4.54810561 14.91526053 -4.08823175 12.83224964 -3.625 10.75 C-3.24214844 9.00976562 -3.24214844 9.00976562 -2.8515625 7.234375 C-2.14203595 4.53947599 -1.36903611 2.40474168 0 0 Z " fill="#E1D23C" transform="translate(875,308)"/>
<path d="M0 0 C-3.62535821 3.17218843 -7.51150278 4.42902597 -12 6 C-12 5.01 -12 4.02 -12 3 C-10.75823305 2.29773859 -9.50614401 1.61370891 -8.25 0.9375 C-7.20585938 0.36322266 -7.20585938 0.36322266 -6.140625 -0.22265625 C-3.63859372 -1.1312406 -2.4667645 -0.88336837 0 0 Z " fill="#126DF3" transform="translate(846,872)"/>
<path d="M0 0 C1.32 0.33 2.64 0.66 4 1 C-1.48247978 6.78706199 -1.48247978 6.78706199 -5 8 C-5.66 7.67 -6.32 7.34 -7 7 C-7 6.34 -7 5.68 -7 5 C-6.01 5 -5.02 5 -4 5 C-4 4.34 -4 3.68 -4 3 C-3.01 3 -2.02 3 -1 3 C-0.67 2.01 -0.34 1.02 0 0 Z " fill="#EADA43" transform="translate(909,868)"/>
<path d="M0 0 C2.02907167 3.3146667 2.12742133 5.4315979 1.625 9.25 C1.51414062 10.14203125 1.40328125 11.0340625 1.2890625 11.953125 C1.19367187 12.62859375 1.09828125 13.3040625 1 14 C0.34 13.67 -0.32 13.34 -1 13 C-1.02708567 11.39592672 -1.04643483 9.7917215 -1.0625 8.1875 C-1.07410156 7.29417969 -1.08570313 6.40085937 -1.09765625 5.48046875 C-1 3 -1 3 0 0 Z " fill="#1567EC" transform="translate(877,274)"/>
<path d="M0 0 C0.66 0.66 1.32 1.32 2 2 C-0.64 4.64 -3.28 7.28 -6 10 C-6.66 9.34 -7.32 8.68 -8 8 C-5.36 5.36 -2.72 2.72 0 0 Z " fill="#1364FC" transform="translate(81,83)"/>
<path d="M0 0 C0.33 0.99 0.66 1.98 1 3 C1.99 3 2.98 3 4 3 C4.38909985 4.45463481 4.76088029 5.91391207 5.125 7.375 C5.33382813 8.18710937 5.54265625 8.99921875 5.7578125 9.8359375 C5.83773438 10.55007813 5.91765625 11.26421875 6 12 C5.34 12.66 4.68 13.32 4 14 C2.13459373 9.29593201 0.63156995 5.05255964 0 0 Z " fill="#347BFC" transform="translate(323,806)"/>
<path d="M0 0 C0.33 0 0.66 0 1 0 C0.88556397 2.0839403 0.75804453 4.16716493 0.625 6.25 C0.55539062 7.41015625 0.48578125 8.5703125 0.4140625 9.765625 C0.03751692 12.70694334 -0.4774123 14.49949011 -2 17 C-2.33 14.69 -2.66 12.38 -3 10 C-2.34 10 -1.68 10 -1 10 C-1.20625 8.72125 -1.4125 7.4425 -1.625 6.125 C-1.9765625 3.9453125 -1.9765625 3.9453125 -2 2 C-1.34 1.34 -0.68 0.68 0 0 Z " fill="#4F8DFD" transform="translate(543,743)"/>
<path d="M0 0 C2.09749995 2.35968744 2.96905704 3.54616994 3.1875 6.75 C3.125625 7.4925 3.06375 8.235 3 9 C2.34 9 1.68 9 1 9 C0.67 9.99 0.34 10.98 0 12 C-0.76173392 7.6835078 -1.16063604 4.25566547 0 0 Z " fill="#F3D83E" transform="translate(873,412)"/>
<path d="M0 0 C5.19209404 -0.21192221 9.126739 0.4087311 14 2 C14 2.33 14 2.66 14 3 C9.1666528 3.08333357 4.76307437 2.95261487 0 2 C0 1.34 0 0.68 0 0 Z " fill="#E5D73E" transform="translate(798,370)"/>
<path d="M0 0 C-0.99 1.485 -0.99 1.485 -2 3 C-4.6015625 3.29296875 -4.6015625 3.29296875 -7.625 3.1875 C-9.12933594 3.14689453 -9.12933594 3.14689453 -10.6640625 3.10546875 C-11.82035156 3.05326172 -11.82035156 3.05326172 -13 3 C-4.32367973 -1.44122658 -4.32367973 -1.44122658 0 0 Z " fill="#E9D636" transform="translate(843,357)"/>
<path d="M0 0 C3.63 1.98 7.26 3.96 11 6 C7 7 7 7 4.859375 6.00390625 C4.16328125 5.52824219 3.4671875 5.05257812 2.75 4.5625 C2.04359375 4.08941406 1.3371875 3.61632812 0.609375 3.12890625 C0.07828125 2.75636719 -0.4528125 2.38382813 -1 2 C-0.67 1.34 -0.34 0.68 0 0 Z " fill="#1366FD" transform="translate(282,561)"/>
<path d="M0 0 C0.99 0.33 1.98 0.66 3 1 C0.42215154 3.64752004 -1.91648098 5.94432065 -5 8 C-5.33 7.01 -5.66 6.02 -6 5 C-5.34 5 -4.68 5 -4 5 C-4 4.34 -4 3.68 -4 3 C-2.1875 1.3125 -2.1875 1.3125 0 0 Z " fill="#1B71E9" transform="translate(675,498)"/>
<path d="M0 0 C0.33 1.32 0.66 2.64 1 4 C-0.43359375 5.921875 -0.43359375 5.921875 -2.4375 7.75 C-3.09621094 8.36359375 -3.75492187 8.9771875 -4.43359375 9.609375 C-5.20896484 10.29773438 -5.20896484 10.29773438 -6 11 C-6.66 10.67 -7.32 10.34 -8 10 C-5.36 6.7 -2.72 3.4 0 0 Z " fill="#1E6AFB" transform="translate(72,92)"/>
<path d="M0 0 C9.41002278 -0.3690205 9.41002278 -0.3690205 14 2 C14 2.33 14 2.66 14 3 C11.03 3 8.06 3 5 3 C5 2.67 5 2.34 5 2 C3.35 1.67 1.7 1.34 0 1 C0 0.67 0 0.34 0 0 Z " fill="#D4CE4D" transform="translate(788,473)"/>
<path d="M0 0 C0.33 0 0.66 0 1 0 C1.38133299 1.9914056 1.71325582 3.99279077 2 6 C1.67 6.33 1.34 6.66 1 7 C0.76518307 9.18292774 0.58636677 11.37203174 0.4375 13.5625 C0.35371094 14.76003906 0.26992188 15.95757813 0.18359375 17.19140625 C0.12300781 18.11824219 0.06242188 19.04507813 0 20 C-0.33 20 -0.66 20 -1 20 C-1.02712351 17.60408962 -1.0468982 15.20849043 -1.0625 12.8125 C-1.07087891 12.13896484 -1.07925781 11.46542969 -1.08789062 10.77148438 C-1.10606538 7.04565869 -0.89299392 3.6211958 0 0 Z " fill="#4480C1" transform="translate(687,549)"/>
<path d="M0 0 C1.22589844 0.15275391 1.22589844 0.15275391 2.4765625 0.30859375 C3.41628906 0.43427734 3.41628906 0.43427734 4.375 0.5625 C3.385 0.8925 2.395 1.2225 1.375 1.5625 C1.375 2.2225 1.375 2.8825 1.375 3.5625 C-4.375 2.8125 -4.375 2.8125 -6.625 0.5625 C-4.10446405 -0.69776798 -2.7707902 -0.35624445 0 0 Z " fill="#F0DA3C" transform="translate(947.625,362.4375)"/>
<path d="M0 0 C-1.5830577 4.2742558 -4.50568404 6.26531794 -8 9 C-7.53918323 4.85264908 -4.48412936 0 0 0 Z " fill="#1562FC" transform="translate(96,70)"/>
<path d="M0 0 C2.90802461 2.21928194 4.95312762 3.92969143 7 7 C6.67 7.99 6.34 8.98 6 10 C4.99106869 8.90398831 3.99311775 7.79786082 3 6.6875 C2.1646875 5.76517578 2.1646875 5.76517578 1.3125 4.82421875 C0 3 0 3 0 0 Z " fill="#EBD73C" transform="translate(864,542)"/>
<path d="M0 0 C-0.1135629 1.64666203 -0.24117381 3.29236082 -0.375 4.9375 C-0.47941406 6.31228516 -0.47941406 6.31228516 -0.5859375 7.71484375 C-0.72257813 8.46894531 -0.85921875 9.22304688 -1 10 C-1.99 10.495 -1.99 10.495 -3 11 C-3 7.7 -3 4.4 -3 1 C-1 0 -1 0 0 0 Z " fill="#E9D146" transform="translate(886,285)"/>
<path d="M0 0 C0.66 0.99 1.32 1.98 2 3 C1.01 3.33 0.02 3.66 -1 4 C-1.2165625 5.175625 -1.2165625 5.175625 -1.4375 6.375 C-2 9 -2 9 -3 11 C-3.66 11 -4.32 11 -5 11 C-3.77472971 6.94718288 -2.30119506 3.55639236 0 0 Z " fill="#2D70FA" transform="translate(333,750)"/>
<path d="M0 0 C2.29633824 3.44450737 2.54016485 5.93812283 3 10 C2.01 10.33 1.02 10.66 0 11 C0 7.37 0 3.74 0 0 Z " fill="#3A7EFD" transform="translate(535,535)"/>
<path d="M0 0 C3.96 0 7.92 0 12 0 C12 0.33 12 0.66 12 1 C11.2575 1.144375 10.515 1.28875 9.75 1.4375 C7.08713438 1.94197586 7.08713438 1.94197586 4.875 2.625 C3 3 3 3 0 2 C0 1.34 0 0.68 0 0 Z " fill="#EFD542" transform="translate(749,496)"/>
<path d="M0 0 C-0.33 0.99 -0.66 1.98 -1 3 C-3.97 3 -6.94 3 -10 3 C-10 2.34 -10 1.68 -10 1 C-6.52674819 -0.1577506 -3.63932552 -0.06866652 0 0 Z " fill="#186CEE" transform="translate(748,471)"/>
<path d="M0 0 C0 3 0 3 -2.5 5.6875 C-3.325 6.450625 -4.15 7.21375 -5 8 C-5.66 7.34 -6.32 6.68 -7 6 C-4.69 4.02 -2.38 2.04 0 0 Z " fill="#1267ED" transform="translate(911,386)"/>
<path d="M0 0 C3.96 0.33 7.92 0.66 12 1 C12 1.33 12 1.66 12 2 C6.06 2.495 6.06 2.495 0 3 C0 2.01 0 1.02 0 0 Z " fill="#EDD73A" transform="translate(954,364)"/>
<path d="M0 0 C0.66 0.33 1.32 0.66 2 1 C0.02 3.31 -1.96 5.62 -4 8 C-4.99 7.67 -5.98 7.34 -7 7 C-4.69 4.69 -2.38 2.38 0 0 Z " fill="#DFECFE" transform="translate(1162,1181)"/>
<path d="M0 0 C3.7910119 1.44950455 7.3874638 3.15172566 11 5 C9.68 5.33 8.36 5.66 7 6 C6.67 5.34 6.34 4.68 6 4 C3.47266765 3.34444881 3.47266765 3.34444881 1 3 C0.67 2.01 0.34 1.02 0 0 Z " fill="#246DE2" transform="translate(816,508)"/>
<path d="M0 0 C0.33 0.66 0.66 1.32 1 2 C1.99 2 2.98 2 4 2 C4 4.31 4 6.62 4 9 C1.74754119 6.31158141 0.11786042 4.35358125 -1 1 C-0.67 0.67 -0.34 0.34 0 0 Z " fill="#EDD83E" transform="translate(864,395)"/>
<path d="M0 0 C4.95 0.99 4.95 0.99 10 2 C10 2.99 10 3.98 10 5 C5.05 3.02 5.05 3.02 0 1 C0 0.67 0 0.34 0 0 Z " fill="#1868ED" transform="translate(855,666)"/>
<path d="M0 0 C0.33 0.66 0.66 1.32 1 2 C-0.65 4.31 -2.3 6.62 -4 9 C-4.66 8.34 -5.32 7.68 -6 7 C-4.02 4.69 -2.04 2.38 0 0 Z " fill="#1E67FB" transform="translate(354,515)"/>
<path d="M0 0 C3.26954202 0.56371414 4.82575883 1.49962266 7 4 C5.68 4.33 4.36 4.66 3 5 C3 4.34 3 3.68 3 3 C2.01 3 1.02 3 0 3 C0 2.01 0 1.02 0 0 Z " fill="#E8D942" transform="translate(885,507)"/>
<path d="M0 0 C0 2 0 2 -2.5 4.625 C-3.325 5.40875 -4.15 6.1925 -5 7 C-5.66 6.67 -6.32 6.34 -7 6 C-7 5.01 -7 4.02 -7 3 C-2.77777778 0 -2.77777778 0 0 0 Z " fill="#DFD145" transform="translate(694,490)"/>
<path d="M0 0 C0.99 0.33 1.98 0.66 3 1 C2.1875 2.9375 2.1875 2.9375 1 5 C0.01 5.33 -0.98 5.66 -2 6 C-2 2 -2 2 0 0 Z " fill="#F2D837" transform="translate(895,401)"/>
<path d="M0 0 C1 4 1 4 0 7 C-2.5625 8.1875 -2.5625 8.1875 -5 9 C-3.35 6.03 -1.7 3.06 0 0 Z " fill="#286EFA" transform="translate(542,822)"/>
<path d="M0 0 C0.33 1.32 0.66 2.64 1 4 C1.66 4 2.32 4 3 4 C2.625 5.9375 2.625 5.9375 2 8 C1.01 8.495 1.01 8.495 0 9 C-1.125 3.375 -1.125 3.375 0 0 Z " fill="#EDD93E" transform="translate(640,548)"/>
<path d="M0 0 C0.66 0.99 1.32 1.98 2 3 C1.01 4.32 0.02 5.64 -1 7 C-1.99 6.67 -2.98 6.34 -4 6 C-2.68 4.02 -1.36 2.04 0 0 Z M2 0 C2.99 0.495 2.99 0.495 4 1 C3.01 1.495 3.01 1.495 2 2 C2 1.34 2 0.68 2 0 Z " fill="#EAD735" transform="translate(653,524)"/>
<path d="M0 0 C0.33 0 0.66 0 1 0 C1.125 6.625 1.125 6.625 0 10 C-0.66 10 -1.32 10 -2 10 C-1.54177532 6.53058454 -1.10868317 3.32604951 0 0 Z " fill="#296EDB" transform="translate(894,409)"/>
<path d="M0 0 C0.6875 1.8125 0.6875 1.8125 1 4 C-0.4375 5.75 -0.4375 5.75 -2 7 C-2.99 6.67 -3.98 6.34 -5 6 C-3.35 4.02 -1.7 2.04 0 0 Z " fill="#2C71DC" transform="translate(930,850)"/>
<path d="M0 0 C0.66 0 1.32 0 2 0 C2 2.64 2 5.28 2 8 C1.01 7.34 0.02 6.68 -1 6 C-1.25 3.4375 -1.25 3.4375 -1 1 C-0.67 0.67 -0.34 0.34 0 0 Z " fill="#E6D042" transform="translate(945,811)"/>
<path d="M0 0 C0.99 0 1.98 0 3 0 C1.63016497 3.16115776 1.0109362 3.9927092 -2 6 C-2 3 -2 3 0 0 Z " fill="#DFCF47" transform="translate(916,554)"/>
<path d="M0 0 C0.99 0.99 1.98 1.98 3 3 C2.34 4.32 1.68 5.64 1 7 C0.01 6.67 -0.98 6.34 -2 6 C-1.34 4.02 -0.68 2.04 0 0 Z " fill="#ECD53A" transform="translate(645,537)"/>
</svg>
